<?xml version="1.0" encoding="UTF-8" standalone="no"?>
<svg
   width="494.51135"
   height="132.26555"
   viewBox="0 0 226.89437 60.686796"
   class="css-1j8o68f"
   version="1.1"
   id="svg17"
   sodipodi:docname="logo.svg"
   inkscape:version="1.3.2 (091e20ef0f, 2023-11-25)"
   xmlns:inkscape="http://www.inkscape.org/namespaces/inkscape"
   xmlns:sodipodi="http://sodipodi.sourceforge.net/DTD/sodipodi-0.dtd"
   xmlns:xlink="http://www.w3.org/1999/xlink"
   xmlns="http://www.w3.org/2000/svg"
   xmlns:svg="http://www.w3.org/2000/svg">
  <sodipodi:namedview
     id="namedview19"
     pagecolor="#ffffff"
     bordercolor="#000000"
     borderopacity="0.25"
     inkscape:showpageshadow="2"
     inkscape:pageopacity="0.0"
     inkscape:pagecheckerboard="0"
     inkscape:deskcolor="#d1d1d1"
     inkscape:zoom="3.4330343"
     inkscape:cx="230.55406"
     inkscape:cy="59.277008"
     inkscape:window-width="3072"
     inkscape:window-height="1647"
     inkscape:window-x="0"
     inkscape:window-y="0"
     inkscape:window-maximized="1"
     inkscape:current-layer="svg17" />
  <defs
     id="SvgjsDefs2381">
    <linearGradient
       id="swatch102"
       inkscape:swatch="solid">
      <stop
         style="stop-color:#000000;stop-opacity:1;"
         offset="0"
         id="stop102" />
    </linearGradient>
    <linearGradient
       id="swatch101"
       inkscape:swatch="solid">
      <stop
         style="stop-color:#000000;stop-opacity:1;"
         offset="0"
         id="stop101" />
    </linearGradient>
    <linearGradient
       id="SVGID_1_"
       gradientUnits="userSpaceOnUse"
       x1="26.7544"
       y1="172.38921"
       x2="26.7544"
       y2="161.9126">
      <stop
         offset="0"
         style="stop-color:#595959"
         id="stop2" />
      <stop
         offset="0.5025"
         style="stop-color:#FFFFFF"
         id="stop3" />
      <stop
         offset="1"
         style="stop-color:#1A1A1A"
         id="stop4" />
    </linearGradient>
    <linearGradient
       inkscape:collect="always"
       xlink:href="#swatch101"
       id="linearGradient101"
       x1="2.0104945"
       y1="13.922843"
       x2="47.740234"
       y2="13.922843"
       gradientUnits="userSpaceOnUse"
       gradientTransform="translate(-1.781082,-2.046294)" />
    <linearGradient
       inkscape:collect="always"
       xlink:href="#swatch102"
       id="linearGradient102"
       x1="169.6031"
       y1="16.78698"
       x2="225.87875"
       y2="16.78698"
       gradientUnits="userSpaceOnUse"
       gradientTransform="translate(-1.4793251,-1.4694058)" />
  </defs>
  <rect
     style="fill:#e5e5e5;fill-opacity:1;stroke:url(#linearGradient102);stroke-width:0.458825;stroke-dasharray:none;paint-order:normal"
     id="rect100"
     width="56.275646"
     height="24.975216"
     x="168.12378"
     y="2.8299654"
     rx="3.8493602"
     ry="3.8493602" />
  <g
     id="SvgjsG2382"
     featurekey="PG4fjM-0"
     transform="matrix(2,0,0,2,-1.4793251,-20.469406)"
     fill="#3b3c98">
    <g
       transform="translate(-270,-140)"
       id="g11">
      <g
         id="g9" />
    </g>
  </g>
  <g
     id="SvgjsG2383"
     featurekey="jxYttZ-0"
     transform="matrix(2.3555286,0,0,2.3555286,76.777583,-14.518985)"
     fill="#111111" />
  <g
     id="car_parts"
     transform="matrix(0.27213649,0,0,0.27213649,0.61033588,0.04308367)">
    <g
       id="g2">
      <polygon
         fill="#404040"
         points="576.37,85.91 678.521,85.91 720.84,184.273 687.242,190.996 577.517,187.511 554.065,179.134 "
         id="polygon1" />
      <path
         d="m 677.862,86.91 41.571,96.625 -32.275,6.458 -109.453,-3.477 -22.459,-8.022 21.913,-91.584 h 100.703 m 1.317,-2 H 575.581 l -22.697,94.864 24.444,8.731 109.997,3.493 34.921,-6.987 z"
         id="path1" />
    </g>
    <g
       id="g3">
      <polygon
         fill="#404040"
         points="107.279,84.162 208.845,84.162 251.167,182.532 218.156,189.246 107.819,184.018 84.984,177.335 "
         id="polygon2" />
      <path
         d="m 208.186,85.162 41.576,96.635 -31.683,6.444 -110.093,-5.216 -21.807,-6.382 21.89,-91.481 h 100.117 m 1.317,-2 H 106.49 l -22.699,94.866 23.862,6.983 110.581,5.239 34.338,-6.984 z"
         id="path2" />
    </g>
    <linearGradient
       id="linearGradient7"
       gradientUnits="userSpaceOnUse"
       x1="26.7544"
       y1="172.38921"
       x2="26.7544"
       y2="161.9126">
      <stop
         offset="0"
         style="stop-color:#595959"
         id="stop5" />
      <stop
         offset="0.5025"
         style="stop-color:#FFFFFF"
         id="stop6" />
      <stop
         offset="1"
         style="stop-color:#1A1A1A"
         id="stop7" />
    </linearGradient>
    <polygon
       fill="url(#SVGID_1_)"
       points="19.771,171.627 42.468,171.627 40.723,161.151 11.041,161.151 "
       id="polygon4"
       style="fill:url(#SVGID_1_)" />
    <path
       fill="#ffffff"
       stroke="#000000"
       stroke-width="2.5"
       stroke-miterlimit="10"
       d="m 28.501,102.368 c 2.372,17.24 2.946,32.766 1.745,46.561 -1.1,13.804 -1.1,22.145 0,25.026 1.201,2.865 10.977,5.454 29.101,7.567 18.678,2.486 29.028,2.201 31.428,-0.583 2.2,-2.966 3.924,-13.603 5.238,-32.011 0.988,-18.396 11.623,-33.635 32.01,-45.979 19.866,-11.807 39.703,-14.394 59.365,-7.565 19.441,6.972 31.803,17.322 37.248,30.845 4.906,14.079 8.068,24.142 9.312,30.266 1.058,6.526 1.918,13.712 2.328,21.533 0.74,8.281 3.042,12.592 6.985,13.388 4.107,0.354 36.884,0.645 98.358,0.583 61.577,0.062 114.479,0.062 158.887,0 44.147,0.062 65.423,-3.103 63.438,-9.314 -1.464,-6.438 1.123,-20.239 8.146,-41.323 6.777,-21.466 20.001,-34.979 39.577,-40.739 19.527,-5.741 38.502,-4.303 57.035,4.076 18.268,8.872 29.194,22.384 32.596,40.737 3.495,18.448 5.797,30.811 6.981,37.249 1.117,6.212 16.639,7.936 46.558,5.238 29.887,-3.051 48.571,-5.063 55.875,-6.4 7.649,-0.962 9.084,-5.276 4.656,-12.806 -4.771,-7.419 -3.907,-11.731 2.329,-12.805 6.414,-1.229 10.15,-4.966 11.055,-11.057 1.398,-6.561 1.108,-11.445 -0.582,-15.133 -1.758,-3.216 -25.618,-11.841 -71.585,-25.607 C 710.543,90.28 670.866,81.083 637.276,76.76 604.165,71.879 584.906,67.568 579.658,63.373 574.553,59.518 552.704,49.742 513.89,34.273 475.648,18.69 454.088,10.354 449.286,9.246 444.886,8.053 418.149,7.477 369.553,7.503 320.394,7.477 285.318,8.341 264.211,9.828 c -21.444,1.963 -39.844,4.263 -55.29,6.986 -15.607,3.026 -31.419,7.052 -47.725,12.22 -15.895,5.182 -32.284,10.069 -48.888,14.55 -16.748,4.722 -30.548,9.032 -41.322,12.807 -11.078,4.277 -17.977,6.574 -20.952,6.981 -2.774,0.746 -5.937,-0.407 -9.312,-3.49 -3.526,-2.667 -7.837,-4.391 -12.804,-5.239 -5.385,-0.301 -6.822,1.999 -4.656,6.983 2.434,5.364 3.584,19.455 3.492,42.487"
       id="path4" />
    <path
       stroke="#000000"
       stroke-width="2"
       stroke-miterlimit="10"
       d="m 705.516,162.897 h 111.6 l 8.146,-5.237 5.238,-17.463 c 0,0 -1.026,-16.167 -8.792,-12.22 -8.968,-0.812 -37.771,-2.256 -37.771,-2.256 l -6.399,28.445 h -73.765"
       id="path5" />
    <g
       id="g7">
      <path
         d="m 42.785,154.039 c -1.998,0 -4.231,-0.097 -6.639,-0.289 -9.168,-0.339 -15.998,-2.266 -19.793,-5.575 -3.976,-3.351 -6.736,-7.212 -8.449,-11.817 -1.647,-4.354 -1.843,-8.754 -0.567,-12.73 l 0.019,-0.06 0.012,-0.062 c 0.779,-4.158 4.913,-6.18 12.636,-6.18 0.298,0 0.602,0.003 0.91,0.01 1.771,-0.036 3.422,-0.054 4.994,-0.054 5.554,0 10.642,0.218 14.714,0.631 4.053,0.607 8.209,6.026 11.973,15.666 4.812,12.424 3.771,16.68 2.051,18.063 -1.37,1.092 -4.544,2.397 -11.861,2.397 0,0 0.001,0 0,0 z"
         id="path6" />
      <path
         d="m 25.908,118.282 c 5.497,0 10.531,0.215 14.562,0.62 2.6,0.415 6.639,3.373 11.192,15.036 5.017,12.953 3.321,16.15 2.365,16.919 -1.249,0.995 -4.212,2.182 -11.241,2.182 -1.972,0 -4.179,-0.096 -6.56,-0.286 l -0.042,-0.003 -0.042,-0.002 c -8.894,-0.327 -15.509,-2.17 -19.156,-5.349 -3.828,-3.226 -6.492,-6.951 -8.147,-11.401 -1.565,-4.135 -1.755,-8.307 -0.549,-12.065 l 0.039,-0.12 0.023,-0.123 c 0.249,-1.326 1.005,-5.363 11.653,-5.363 0.292,0 0.588,0.003 0.89,0.01 h 0.042 0.042 c 1.675,-0.038 3.334,-0.055 4.929,-0.055 m 0,-2 c -1.579,0 -3.237,0.018 -4.974,0.054 -0.315,-0.007 -0.626,-0.01 -0.931,-0.01 -8.168,0 -12.74,2.306 -13.619,6.995 -1.391,4.334 -1.102,8.936 0.583,13.385 1.768,4.751 4.64,8.777 8.729,12.223 3.963,3.455 10.862,5.468 20.371,5.818 2.461,0.196 4.7,0.292 6.718,0.292 6.216,0 10.346,-0.911 12.488,-2.618 2.912,-2.34 2.337,-8.662 -1.746,-19.205 -3.967,-10.16 -8.28,-15.621 -12.804,-16.298 -3.72,-0.377 -8.667,-0.636 -14.815,-0.636 z"
         id="path7" />
    </g>
    <g
       id="g8">
      <polygon
         points="95.013,144.692 95.013,154.894 38.231,153.914 38.231,144.692 "
         id="polygon7" />
      <path
         d="m 94.013,145.692 v 8.185 l -54.782,-0.946 v -7.238 h 54.782 m 2,-2.001 H 37.231 v 11.204 l 58.782,1.016 z"
         id="path8" />
    </g>
    <path
       fill="none"
       stroke="#000000"
       stroke-width="2"
       stroke-miterlimit="10"
       d="m 29.962,107.605 h 90.644 m 90.359,0 373.349,8.73 m 103.394,1.899 136.389,9.743"
       id="path9" />
    <g
       id="g10">
      <polygon
         points="567.273,149.928 564.354,160.151 236.448,160.151 233.527,149.928 "
         id="polygon9" />
      <path
         d="m 565.947,150.928 -2.348,8.223 H 237.203 l -2.35,-8.223 h 331.094 m 2.652,-2 H 232.201 l 3.493,12.223 h 329.415 z"
         id="path10" />
    </g>
    <g
       id="g12">
      <path
         d="m 164.135,221.843 c -16.624,0 -32.302,-6.56 -44.146,-18.47 -12.337,-12.406 -19.076,-29.053 -18.976,-46.873 -0.093,-16.458 6.187,-31.883 17.683,-43.445 12.103,-12.171 28.5,-18.875 46.171,-18.875 0.418,0 0.833,0.004 1.253,0.012 35.951,0.656 62.067,26.858 62.098,62.303 -0.031,36.032 -28.349,65.348 -63.126,65.348 z"
         id="path11" />
      <path
         d="m 164.87,93.181 v 2 c 0.411,0 0.819,0.004 1.231,0.011 35.383,0.646 61.086,26.428 61.116,61.3 -0.031,35.483 -27.9,64.351 -62.126,64.351 l -0.491,-0.002 -0.465,0.002 c -16.356,0 -31.783,-6.455 -43.438,-18.176 -12.147,-12.216 -18.783,-28.609 -18.685,-46.185 -0.092,-16.178 6.084,-31.349 17.391,-42.72 11.914,-11.982 28.059,-18.581 45.463,-18.582 l 0.004,-1.999 m -0.003,0 c -35.558,0.001 -65.058,27.283 -64.854,63.313 -0.206,36.699 28.517,66.349 64.123,66.349 0.159,0 0.32,-10e-4 0.479,-0.002 0.161,0.001 0.316,0.002 0.476,0.002 35.369,0 64.095,-29.651 64.126,-66.349 -0.032,-36.46 -26.955,-62.642 -63.08,-63.302 -0.425,-0.007 -0.846,-0.011 -1.27,-0.011 z"
         id="path12" />
    </g>
    <g
       id="g14">
      <path
         fill="#bfbfbf"
         d="m 164.108,196.963 c -22.491,-0.021 -40.17,-17.798 -40.249,-40.473 0.079,-22.269 18.002,-40.392 39.954,-40.392 h 0.584 c 10.484,0 20.809,4.361 28.327,11.965 7.572,7.658 11.676,17.752 11.556,28.419 0.12,10.766 -3.944,20.861 -11.441,28.449 -7.545,7.637 -18.018,12.021 -28.733,12.031 h 0.002 z"
         id="path13" />
      <path
         d="m 164.398,117.099 c 10.219,0 20.284,4.253 27.616,11.668 7.383,7.467 11.385,17.307 11.267,27.75 0.117,10.474 -3.844,20.315 -11.153,27.713 -7.358,7.447 -17.572,11.724 -28.019,11.733 -10.446,-0.01 -20.256,-4.036 -27.624,-11.338 -7.46,-7.394 -11.589,-17.387 -11.626,-28.124 0.077,-21.725 17.551,-39.401 38.954,-39.402 l 0.308,10e-4 0.277,-10e-4 m 0,-2 c -0.096,0 -0.194,0 -0.291,10e-4 -0.099,0 -0.195,-10e-4 -0.293,-10e-4 -22.364,10e-4 -40.873,18.369 -40.954,41.396 0.082,23.532 18.751,41.448 41.248,41.469 22.258,-0.021 41.435,-17.937 41.173,-41.469 0.261,-23.028 -18.748,-41.396 -40.883,-41.396 z"
         id="path14" />
    </g>
    <g
       id="g16">
      <path
         fill="#ffffff"
         d="m 163.994,190.999 c -18.942,0 -34.369,-15.479 -34.389,-34.505 0.02,-18.705 15.3,-33.924 34.062,-33.924 h 0.876 c 18.535,0 33.818,15.225 34.067,33.938 -0.248,19.006 -15.675,34.49 -34.39,34.49 h -0.226 z"
         id="path15" />
      <path
         d="m 164.543,123.57 c 17.982,0 32.811,14.769 33.067,32.926 -0.256,18.476 -15.229,33.503 -33.39,33.503 h -0.119 -0.108 c -8.94,0 -17.327,-3.474 -23.616,-9.782 -6.292,-6.312 -9.763,-14.737 -9.772,-23.72 0.019,-18.155 14.851,-32.926 33.062,-32.927 0.139,0 0.277,0.001 0.466,0.003 0.136,-0.002 0.274,-0.003 0.41,-0.003 m 0,-2 c -0.144,0 -0.291,0.001 -0.436,0.003 -0.147,-0.002 -0.294,-0.003 -0.441,-0.003 -19.436,0.001 -35.042,15.75 -35.062,34.925 0.021,19.685 15.8,35.504 35.389,35.504 0.037,0 0.077,0 0.114,0 0.038,0 0.075,0 0.113,0 19.351,0 35.133,-15.82 35.39,-35.504 -0.256,-19.177 -15.862,-34.925 -35.067,-34.925 z"
         id="path16" />
    </g>
    <g
       id="g18">
      <path
         d="m 636.184,220.1 c -15.641,0.001 -30.41,-6.184 -41.587,-17.413 -11.698,-11.753 -18.096,-27.535 -18.016,-44.44 -0.079,-16.488 5.886,-31.601 16.796,-42.563 10.768,-10.819 25.63,-16.777 41.851,-16.777 0.481,0 0.961,0.005 1.445,0.016 34.934,0.743 60.221,25.689 60.129,59.316 0.046,16.934 -6.388,32.731 -18.115,44.491 -11.171,11.201 -25.903,17.37 -41.483,17.37 z"
         id="path17" />
      <path
         d="m 635.229,97.907 v 2 h 10e-4 c 0.474,0 0.944,0.005 1.421,0.015 16.655,0.354 31.747,6.357 42.494,16.903 10.785,10.582 16.7,25.289 16.656,41.423 0.045,16.659 -6.284,32.206 -17.823,43.776 -10.982,11.012 -25.463,17.076 -40.775,17.076 l -0.525,-0.002 -0.494,0.002 c -15.373,0 -29.892,-6.08 -40.879,-17.12 -11.509,-11.563 -17.803,-27.093 -17.724,-43.748 -0.078,-16.209 5.783,-31.068 16.503,-41.841 10.578,-10.629 25.189,-16.483 41.144,-16.484 l 0.001,-2 m -0.001,0 c -34.614,0.002 -59.811,26.238 -59.646,60.335 -0.165,34.761 26.99,62.858 60.603,62.858 0.17,0 0.342,-0.001 0.511,-0.002 0.171,10e-4 0.339,0.002 0.509,0.002 33.529,0 60.693,-28.1 60.599,-62.858 0.095,-34.578 -25.739,-59.567 -61.107,-60.319 -0.495,-0.011 -0.981,-0.016 -1.469,-0.016 z"
         id="path18" />
    </g>
    <g
       id="g20">
      <path
         fill="#a6a6a6"
         d="m 636.695,196.963 c -21.454,-0.021 -38.366,-16.521 -38.503,-37.565 0.137,-21.177 17.824,-39.079 38.625,-39.079 h 0.778 c 20.523,0 37.391,17.311 37.6,38.588 -0.209,20.955 -17.48,38.036 -38.502,38.057 h 0.002 z"
         id="path19" />
      <path
         d="m 637.596,121.319 c 9.705,0 18.846,3.898 25.74,10.978 6.903,7.089 10.76,16.543 10.859,26.581 -0.203,20.43 -17.027,37.066 -37.499,37.086 -9.944,-0.01 -19.306,-3.76 -26.361,-10.56 -7.121,-6.863 -11.078,-16.101 -11.143,-25.986 0.133,-20.651 17.363,-38.099 37.625,-38.099 l 0.405,0.002 0.374,-0.002 m 0,-2 c -0.13,0 -0.263,10e-4 -0.394,0.002 -0.128,-0.001 -0.257,-0.002 -0.385,-0.002 -21.301,0 -39.484,18.196 -39.625,40.086 0.142,21.779 18.036,38.538 39.502,38.559 21.39,-0.021 39.284,-17.286 39.501,-39.066 -0.216,-21.887 -17.39,-39.579 -38.599,-39.579 z"
         id="path20" />
    </g>
    <g
       id="g22">
      <path
         fill="#ffffff"
         d="m 636.576,190.999 c -17.923,0 -32.566,-14.696 -32.644,-32.761 0.077,-17.738 14.54,-32.176 32.241,-32.176 l 0.5,0.004 0.529,-0.004 c 17.627,0 32.091,14.439 32.242,32.188 -0.151,18.049 -14.795,32.747 -32.643,32.748 h -0.225 z"
         id="path21" />
      <path
         d="m 637.203,127.062 c 17.08,0 31.096,13.995 31.242,31.163 -0.146,17.52 -14.342,31.773 -31.643,31.773 h -0.12 -0.106 c -17.374,0 -31.568,-14.25 -31.644,-31.748 0.075,-17.197 14.09,-31.188 31.241,-31.188 0.161,0 0.322,0.001 0.485,0.004 h 0.03 0.03 c 0.163,-0.003 0.325,-0.004 0.485,-0.004 m 0,-2 c -0.17,0 -0.343,0.001 -0.514,0.004 -0.173,-0.003 -0.344,-0.004 -0.516,-0.004 -18.371,0.001 -33.162,14.959 -33.241,33.18 0.08,18.711 15.086,33.757 33.644,33.757 0.037,0 0.076,0 0.113,0 0.038,0 0.074,0 0.113,0 18.48,0 33.485,-15.047 33.643,-33.757 -0.156,-18.222 -14.944,-33.18 -33.242,-33.18 z"
         id="path22" />
    </g>
    <path
       fill="none"
       stroke="#000000"
       stroke-width="2"
       stroke-miterlimit="10"
       d="m 328.813,75.015 v 79.151 M 552.884,79.954 v 74.213"
       id="path23" />
    <polygon
       stroke="#000000"
       stroke-width="2"
       stroke-miterlimit="10"
       points="277.016,12.742 344.528,12.742 402.728,12.742 449.286,12.742 513.308,38.346 578.257,68.761 594.652,76.76 579.076,76.76 250.825,68.029 244.424,57.552 266.54,17.978 "
       id="polygon23" />
    <g
       id="g24">
      <polygon
         fill="#ffffff"
         points="319.083,18.978 319.083,63.496 280.009,61.842 290.031,18.978 "
         id="polygon24" />
      <path
         d="m 318.083,19.978 v 42.475 l -36.825,-1.558 9.566,-40.917 h 27.259 m 2,-2 h -30.845 l -10.477,44.813 41.322,1.748 z"
         id="path24" />
    </g>
    <g
       id="g25">
      <polygon
         fill="#ffffff"
         points="447.936,18.246 568.572,70.338 474.242,67.046 469.345,60.518 "
         id="polygon25" />
      <path
         d="m 450.076,20.26 113.231,48.894 -88.553,-3.089 -4.558,-6.077 -20.12,-39.728 m -4.281,-4.028 22.697,44.815 5.237,6.982 100.108,3.493 z"
         id="path25" />
    </g>
    <g
       id="g26">
      <polygon
         fill="#ffffff"
         points="440.509,18.978 463.395,66.984 340.291,63.566 340.291,18.978 "
         id="polygon26" />
      <path
         d="M 439.878,19.978 461.789,65.94 341.29,62.594 V 19.978 h 98.588 m 1.262,-2 H 339.291 v 46.561 l 125.71,3.491 z"
         id="path26" />
    </g>
    <g
       id="g28">
      <path
         fill="#b7b7b7"
         d="m 235.733,37.347 c -0.188,0.004 -0.3,0.006 -0.41,0.006 -2.144,0 -4.099,-0.776 -5.505,-2.186 -1.2,-1.203 -1.859,-2.759 -1.855,-4.383 -0.003,-1.642 0.656,-3.208 1.858,-4.412 1.394,-1.396 3.33,-2.166 5.452,-2.166 0.125,0 0.251,0.003 0.378,0.008 0.208,-0.005 0.328,-0.008 0.445,-0.008 3.903,0 7.11,2.884 7.327,6.575 -0.215,3.628 -3.513,6.571 -7.375,6.571 -0.105,0.001 -0.21,-10e-4 -0.315,-0.005 z"
         id="path27" />
      <path
         fill="#494949"
         d="m 236.096,25.207 c 3.295,0 6.109,2.492 6.325,5.575 -0.217,3.082 -3.053,5.571 -6.374,5.571 -0.091,0 -0.182,-0.001 -0.273,-0.005 l -0.078,-0.003 -0.078,0.003 c -0.099,0.004 -0.197,0.005 -0.294,0.005 -1.849,0 -3.598,-0.689 -4.797,-1.892 -1.011,-1.013 -1.566,-2.318 -1.563,-3.683 -0.003,-1.37 0.553,-2.684 1.566,-3.699 1.204,-1.207 2.889,-1.872 4.744,-1.872 0.111,0 0.223,0.002 0.335,0.007 l 0.088,0.004 0.089,-0.004 c 0.103,-0.005 0.207,-0.007 0.31,-0.007 m 0,-2 c -0.133,0 -0.268,0.003 -0.402,0.009 -0.142,-0.006 -0.282,-0.009 -0.421,-0.009 -4.677,0 -8.318,3.399 -8.31,7.575 -0.009,4.161 3.659,7.571 8.361,7.571 0.123,0 0.246,-0.002 0.37,-0.007 0.118,0.005 0.236,0.007 0.353,0.007 4.487,0 8.163,-3.41 8.377,-7.571 -0.213,-4.176 -3.863,-7.575 -8.328,-7.575 z"
         id="path28" />
    </g>
    <g
       id="g29">
      <path
         d="m 281.311,19.978 -12.768,42.561 h -12.989 l -2.477,-4.955 16.831,-31.418 6.189,-6.188 h 5.214 m 2.688,-2 h -8.73 l -6.984,6.983 -17.46,32.591 3.493,6.986 h 15.714 z"
         id="path29" />
    </g>
    <g
       id="g31">
      <g
         id="g30">
        <path
           d="m 439.392,171.627 c -3.389,0.08 -6.775,0.096 -10.163,0.128 -3.388,0.046 -6.773,0.03 -10.159,0.019 l -10.158,-0.029 -10.155,-0.111 -10.153,-0.172 -10.153,-0.224 -20.302,-0.51 -20.302,-0.509 c -6.768,-0.154 -13.533,-0.377 -20.299,-0.582 l -20.298,-0.622 c -6.767,-0.189 -13.53,-0.468 -20.295,-0.7 l 1.99,-1.927 -0.092,16.878 -1.835,-1.835 34.948,0.329 34.947,0.399 8.737,0.1 4.369,0.05 1.092,0.013 0.273,0.003 0.214,-0.01 0.545,-0.025 2.182,-0.104 17.456,-0.827 17.456,-0.827 17.461,-0.758 -17.417,1.445 -17.422,1.376 -17.422,1.375 -2.178,0.173 -0.544,0.043 -0.332,0.021 -0.273,0.003 -1.092,0.013 -4.369,0.05 -8.737,0.1 -34.947,0.399 -34.948,0.329 -1.825,0.018 -0.01,-1.853 -0.092,-16.878 -0.011,-1.988 2.002,0.062 c 6.766,0.209 13.533,0.372 20.298,0.623 l 20.295,0.702 c 6.765,0.235 13.531,0.453 20.294,0.741 l 20.292,0.813 20.292,0.814 10.144,0.429 10.144,0.47 10.142,0.53 10.14,0.613 c 3.38,0.202 6.76,0.399 10.138,0.66 3.376,0.247 6.755,0.476 10.132,0.77 z"
           id="path30" />
      </g>
    </g>
    <g
       id="g32">
      <path
         d="m 72.092,54.812 c 0,0 64.177,4.93 128.354,9.86 16.045,1.194 32.09,2.388 47.133,3.507 7.523,0.536 14.792,1.135 21.692,1.553 6.898,0.449 13.421,0.873 19.441,1.265 24.082,1.567 40.137,2.612 40.137,2.612 l -0.072,1.346 c 0,0 -16.063,-1.004 -40.157,-2.511 -6.024,-0.376 -12.549,-0.785 -19.452,-1.216 C 262.263,70.827 254.996,70.246 247.47,69.73 232.421,68.648 216.368,67.495 200.316,66.341 136.126,61.574 71.937,56.807 71.937,56.807 Z"
         id="path31" />
    </g>
    <g
       id="g33">
      <polygon
         fill="#ffffff"
         points="525.103,65.498 528.401,64.285 526.71,75.399 543.214,79.171 520.64,79.171 519.101,75.071 "
         id="polygon32" />
      <path
         d="m 527.779,65.046 -1.493,9.819 -0.14,0.918 0.905,0.207 11.73,2.681 h -17.797 l -1.329,-3.544 5.779,-9.219 2.345,-0.862 m 1.243,-1.523 -4.253,1.564 -6.224,9.928 1.747,4.656 h 27.353 l -20.371,-4.656 z"
         id="path32" />
    </g>
    <g
       id="g34">
      <path
         fill="#ffffff"
         d="m 510.816,51.931 c 6.57,2.071 16.205,5.329 17.591,6.41 l 0.307,0.238 c 2.084,1.619 3.331,2.688 2.914,3.74 -1.114,1.174 -11.181,4.809 -20.812,7.843 z"
         id="path33" />
      <path
         d="m 511.816,53.296 c 7.401,2.358 14.867,4.992 15.977,5.833 l 0.308,0.24 c 0.839,0.652 2.351,1.826 2.586,2.407 -1.948,1.261 -10.62,4.381 -18.87,7.019 V 53.296 m -2.001,-2.725 v 20.951 c 0,0 21.807,-6.773 22.697,-8.731 0.89,-1.958 -1.313,-3.541 -3.491,-5.238 -2.176,-1.699 -19.206,-6.982 -19.206,-6.982 z"
         id="path34" />
    </g>
    <line
       fill="none"
       stroke="#000000"
       stroke-width="2"
       stroke-miterlimit="10"
       x1="515.05499"
       y1="53.75"
       x2="515.05499"
       y2="69.776001"
       id="line34" />
    <g
       id="g35">
      <rect
         x="347.306"
         y="86.014"
         fill="#ffffff"
         width="13.217"
         height="6.2340002"
         id="rect34" />
      <path
         d="m 360.148,86.389 v 5.484 h -12.467 v -5.484 h 12.467 m 0.75,-0.75 h -13.967 v 6.984 h 13.967 z"
         id="path35" />
    </g>
    <g
       id="g36">
      <path
         d="m 377.366,84.662 v 7.477 h -31.338 v -7.477 h 31.338 m 1.5,-1.5 h -34.338 v 10.477 h 34.338 z"
         id="path36" />
    </g>
    <g
       id="g37">
      <rect
         x="326.32101"
         y="20.723"
         width="6.7309999"
         height="42.816002"
         id="rect36" />
      <path
         d="m 332.052,21.723 v 40.816 h -4.731 V 21.723 h 4.731 m 2,-2 h -8.731 v 44.816 h 8.731 z"
         id="path37" />
    </g>
    <g
       id="g39">
      <path
         fill="#9e9e9e"
         d="m 799.881,179.72 c -14.103,0 -36.042,-1.13 -52.652,-2.126 13.931,-0.509 30.808,-1.521 40.354,-3.529 14.879,-3.131 21.854,-6.749 24.074,-8.09 1.787,2.358 4.874,7.292 4.07,10.391 -0.295,1.136 -1.103,1.945 -2.469,2.476 -1.032,0.401 -4.19,0.879 -13.374,0.879 -10e-4,-0.001 -0.002,-0.001 -0.003,-0.001 z"
         id="path38" />
      <path
         fill="#9e9e9e"
         d="m 811.377,167.287 c 1.667,2.354 4.015,6.384 3.382,8.827 -0.133,0.512 -0.471,1.255 -1.862,1.796 -0.628,0.243 -3.153,0.811 -13.016,0.811 -9.159,0 -21.638,-0.478 -33.809,-1.086 8.312,-0.593 16.172,-1.424 21.716,-2.591 13.509,-2.843 20.629,-6.121 23.589,-7.757 m 0.5,-2.646 c 0,0 -6.227,4.6 -24.501,8.445 -18.273,3.846 -63.112,4.016 -63.112,4.016 0,0 50.188,3.618 75.617,3.618 6.91,0 11.989,-0.267 13.739,-0.946 8.191,-3.18 -1.743,-15.133 -1.743,-15.133 z"
         id="path39" />
    </g>
    <g
       id="g40">
      <polygon
         fill="#a3a3a3"
         points="535.27,79.681 450.646,86.639 519.136,76.478 520.842,78.403 "
         id="polygon39" />
      <path
         fill="#a3a3a3"
         d="m 518.746,77.546 1.083,1.222 0.528,0.595 0.792,0.07 2.366,0.209 -42.41,3.488 37.641,-5.584 m 0.778,-2.137 -99.336,14.738 126.834,-10.43 -25.696,-2.275 z"
         id="path40" />
    </g>
    <g
       id="g41">
      <path
         d="m 47.744,63.539 c 0,0 45.333,1.602 113.333,4.003 16.999,0.62 35.415,1.292 54.893,2.001 19.479,0.654 40.021,1.344 61.271,2.057 21.25,0.713 43.208,1.45 65.521,2.199 22.316,0.64 44.985,1.29 67.655,1.939 11.335,0.317 22.67,0.634 33.961,0.95 5.646,0.158 11.28,0.315 16.897,0.473 5.619,0.103 11.221,0.206 16.8,0.308 22.319,0.406 44.284,0.805 65.54,1.191 42.555,0.756 82.239,3.343 116.034,7.516 4.221,0.551 8.361,1.022 12.393,1.608 4.031,0.583 7.969,1.152 11.808,1.707 3.829,0.625 7.559,1.234 11.185,1.827 3.63,0.569 7.128,1.281 10.532,1.883 1.701,0.312 3.374,0.619 5.02,0.92 1.639,0.337 3.249,0.668 4.831,0.993 3.161,0.667 6.218,1.263 9.137,1.921 5.828,1.357 11.2,2.519 15.998,3.795 2.405,0.611 4.682,1.19 6.824,1.734 2.129,0.592 4.125,1.148 5.981,1.665 3.715,1.03 6.872,1.915 9.404,2.727 5.081,1.563 7.791,2.396 7.791,2.396 0,0 -2.722,-0.794 -7.824,-2.284 -2.542,-0.775 -5.711,-1.614 -9.438,-2.59 -1.863,-0.49 -3.865,-1.016 -6.001,-1.578 -2.148,-0.513 -4.432,-1.059 -6.844,-1.635 -4.811,-1.206 -10.195,-2.289 -16.035,-3.56 -2.924,-0.615 -5.986,-1.166 -9.151,-1.787 -1.584,-0.307 -3.196,-0.62 -4.836,-0.938 -1.646,-0.286 -3.319,-0.577 -5.021,-0.873 -3.405,-0.57 -6.904,-1.249 -10.535,-1.783 -3.625,-0.558 -7.355,-1.131 -11.184,-1.72 -3.838,-0.519 -7.775,-1.05 -11.806,-1.595 -4.029,-0.547 -8.169,-0.979 -12.388,-1.49 -16.891,-1.894 -35.236,-3.528 -54.679,-4.688 -19.444,-1.171 -39.969,-1.889 -61.216,-2.174 -21.264,-0.367 -43.236,-0.747 -65.563,-1.132 -5.582,-0.097 -11.186,-0.194 -16.806,-0.292 -5.619,-0.152 -11.254,-0.305 -16.9,-0.458 -11.293,-0.305 -22.63,-0.612 -33.967,-0.919 -22.673,-0.629 -45.347,-1.259 -67.666,-1.878 -22.315,-0.729 -44.277,-1.446 -65.529,-2.141 -21.253,-0.694 -41.797,-1.365 -61.279,-2.002 -19.478,-0.71 -37.894,-1.381 -54.893,-2.001 C 93,67.258 47.67,65.538 47.67,65.538 Z"
         id="path41" />
    </g>
    <line
       fill="none"
       stroke="#000000"
       stroke-width="2"
       stroke-miterlimit="10"
       x1="47.707001"
       y1="64.539001"
       x2="47.543999"
       y2="107.605"
       id="line41" />
    <g
       id="g47">
      <g
         id="g42">
        <polygon
           fill="#ffffff"
           points="628.222,139.485 631.116,139.837 632.257,142.52 630.505,144.85 627.61,144.498 626.469,141.815 "
           id="polygon41" />
        <path
           d="m 628.447,140.016 2.321,0.283 0.915,2.15 -1.404,1.869 -2.321,-0.282 -0.916,-2.151 1.405,-1.869 m -0.452,-1.062 -2.1,2.792 1.368,3.214 3.468,0.422 2.099,-2.792 -1.367,-3.213 z"
           id="path42" />
      </g>
      <g
         id="g43">
        <polygon
           fill="#ffffff"
           points="650.683,143.714 653.53,144.343 654.412,147.124 652.445,149.275 649.597,148.648 648.717,145.867 "
           id="polygon42" />
        <path
           d="m 650.857,144.265 2.283,0.504 0.707,2.23 -1.577,1.726 -2.284,-0.504 -0.705,-2.23 1.576,-1.726 m -0.348,-1.101 -2.355,2.579 1.054,3.331 3.412,0.752 2.356,-2.578 -1.056,-3.33 z"
           id="path43" />
      </g>
      <g
         id="g44">
        <polygon
           fill="#ffffff"
           points="653.874,163.197 656.646,164.093 657.257,166.945 655.091,168.9 652.318,168.002 651.708,165.15 "
           id="polygon43" />
        <path
           d="m 653.994,163.761 2.224,0.719 0.489,2.287 -1.736,1.568 -2.224,-0.72 -0.49,-2.288 1.737,-1.566 m -0.241,-1.129 -2.595,2.34 0.731,3.417 3.322,1.075 2.594,-2.342 -0.73,-3.416 z"
           id="path44" />
      </g>
      <g
         id="g45">
        <polygon
           fill="#ffffff"
           points="635.446,173.846 638.122,175.005 638.456,177.902 636.115,179.64 633.438,178.48 633.104,175.584 "
           id="polygon44" />
        <path
           d="m 635.512,174.42 2.146,0.93 0.269,2.322 -1.878,1.394 -2.146,-0.931 -0.269,-2.321 1.878,-1.394 m -0.132,-1.147 -2.806,2.082 0.4,3.469 3.207,1.39 2.805,-2.082 -0.4,-3.47 z"
           id="path45" />
      </g>
      <g
         id="g46">
        <polygon
           fill="#ffffff"
           points="619.563,159.231 622.116,160.64 622.171,163.557 619.677,165.063 617.123,163.654 617.068,160.737 "
           id="polygon45" />
        <path
           d="m 619.574,159.808 2.047,1.131 0.045,2.34 -2.001,1.207 -2.047,-1.131 -0.045,-2.34 2.001,-1.207 m -0.022,-1.154 -2.989,1.804 0.066,3.494 3.059,1.688 2.989,-1.804 -0.066,-3.494 z"
           id="path46" />
      </g>
      <circle
         fill="#ffffff"
         stroke="#000000"
         stroke-width="2"
         stroke-miterlimit="10"
         cx="636.91901"
         cy="158.479"
         r="6.2779999"
         id="circle46" />
    </g>
    <g
       id="g53">
      <g
         id="g48">
        <polygon
           fill="#ffffff"
           points="165.247,135.563 167.577,137.316 167.224,140.209 164.542,141.351 162.211,139.598 162.563,136.705 "
           id="polygon47" />
        <path
           d="m 165.177,136.136 1.869,1.405 -0.283,2.32 -2.151,0.916 -1.869,-1.405 0.283,-2.32 2.151,-0.916 m 0.139,-1.146 -3.214,1.368 -0.422,3.467 2.792,2.1 3.214,-1.368 0.422,-3.467 z"
           id="path47" />
      </g>
      <g
         id="g49">
        <polygon
           fill="#ffffff"
           points="182.213,149.069 184.365,151.037 183.737,153.885 180.958,154.765 178.805,152.798 179.434,149.95 "
           id="polygon48" />
        <path
           d="m 182.089,149.633 1.726,1.578 -0.503,2.284 -2.229,0.705 -1.727,-1.577 0.504,-2.284 2.229,-0.706 m 0.248,-1.128 -3.33,1.055 -0.753,3.412 2.579,2.356 3.33,-1.054 0.751,-3.412 z"
           id="path48" />
      </g>
      <g
         id="g50">
        <polygon
           fill="#ffffff"
           points="176.738,168.992 178.692,171.155 177.794,173.929 174.942,174.54 172.989,172.375 173.886,169.601 "
           id="polygon49" />
        <path
           d="m 176.561,169.542 1.567,1.734 -0.72,2.225 -2.287,0.49 -1.566,-1.735 0.72,-2.226 2.286,-0.488 m 0.355,-1.099 -3.417,0.729 -1.075,3.324 2.34,2.593 3.417,-0.731 1.076,-3.324 z"
           id="path49" />
      </g>
      <g
         id="g51">
        <polygon
           fill="#ffffff"
           points="152.496,169.051 154.233,171.393 153.076,174.067 150.179,174.402 148.44,172.059 149.599,169.385 "
           id="polygon50" />
        <path
           d="m 152.266,169.581 1.394,1.879 -0.929,2.145 -2.323,0.268 -1.395,-1.879 0.929,-2.145 2.324,-0.268 m 0.459,-1.06 -3.47,0.4 -1.388,3.204 2.083,2.806 3.47,-0.4 1.387,-3.204 z"
           id="path50" />
      </g>
      <g
         id="g52">
        <polygon
           fill="#ffffff"
           points="147.622,148.775 149.128,151.271 147.717,153.825 144.804,153.88 143.297,151.384 144.708,148.83 "
           id="polygon51" />
        <path
           d="m 147.342,149.28 1.208,2.003 -1.131,2.048 -2.336,0.045 -1.208,-2.003 1.131,-2.048 2.336,-0.045 m 0.558,-1.011 -3.491,0.066 -1.689,3.06 1.805,2.991 3.491,-0.067 1.689,-3.059 z"
           id="path51" />
      </g>
      <circle
         fill="#ffffff"
         stroke="#000000"
         stroke-width="2"
         stroke-miterlimit="10"
         cx="163.282"
         cy="156.36"
         r="6.2779999"
         id="circle52" />
    </g>
    <circle
       fill="none"
       stroke="#000000"
       stroke-width="0.5"
       stroke-linecap="round"
       stroke-linejoin="round"
       stroke-miterlimit="10"
       cx="351.884"
       cy="89.130997"
       r="2.029"
       id="circle53" />
  </g>
  <rect
     style="opacity:1;mix-blend-mode:normal;fill:#e5e5e5;fill-opacity:1;stroke:url(#linearGradient101);stroke-width:0.458825;stroke-miterlimit:3.3;stroke-dasharray:none;paint-order:normal"
     id="rect101"
     width="47.114937"
     height="24.078514"
     x="0.2294125"
     y="0.2294125"
     rx="4.8527799"
     ry="4.8527799" />
  <text
     xml:space="preserve"
     style="font-style:normal;font-variant:normal;font-weight:bold;font-stretch:normal;font-size:21.509px;font-family:Comfortaa;-inkscape-font-specification:'Comfortaa Bold';fill:#000000;fill-opacity:1;stroke-width:8.06583;stroke-dasharray:none"
     x="2.1812668"
     y="20.219372"
     id="text98"><tspan
       sodipodi:role="line"
       id="tspan98"
       style="fill:#000000;fill-opacity:1;stroke-width:8.06583"
       x="2.1812668"
       y="20.219372">Car</tspan></text>
  <text
     xml:space="preserve"
     style="font-style:normal;font-variant:normal;font-weight:bold;font-stretch:normal;font-size:15.3335px;font-family:Comfortaa;-inkscape-font-specification:'Comfortaa Bold';fill:#000000;fill-opacity:1;stroke-width:5.75005;stroke-dasharray:none;paint-order:normal"
     x="177.36935"
     y="21.472319"
     id="text101"><tspan
       sodipodi:role="line"
       id="tspan101"
       style="stroke-width:5.75005"
       x="177.36935"
       y="21.472319">HUB</tspan></text>
</svg>
